{
  "chapters": [],
  "format": {
    "bit_rate": "202220",
    "duration": "1.200000",
    "filename": "/workspaces/typed-ffmpeg/src/ffmpeg/tests/test_probe/test_data/201432913186_fish.gif",
    "format_long_name": "CompuServe Graphics Interchange Format (GIF)",
    "format_name": "gif",
    "nb_programs": 0,
    "nb_streams": 1,
    "probe_score": 100,
    "size": "30333",
    "start_time": "0.000000",
    "tags": {
      "comment": "This GIF file was assembled with GIF Construction Set from:\r\n\r\nAlchemy Mindworks Inc.\r\nP.O. Box 500\r\nBeeton, Ontario\r\nL0G 1A0\r\nCANADA.\r\n\r\nThis comment block will not appear in files created with a registered version of GIF Construction Set"
    }
  },
  "packets_and_frames": [
    {
      "codec_type": "video",
      "dts": 0,
      "dts_time": "0.000000",
      "duration": 10,
      "duration_time": "0.100000",
      "flags": "K__",
      "pos": "0",
      "pts": 0,
      "pts_time": "0.000000",
      "size": "2782",
      "stream_index": 0,
      "type": "packet"
    },
    {
      "best_effort_timestamp": 0,
      "best_effort_timestamp_time": "0.000000",
      "coded_picture_number": 0,
      "display_picture_number": 0,
      "duration": 10,
      "duration_time": "0.100000",
      "height": 360,
      "interlaced_frame": 0,
      "key_frame": 1,
      "media_type": "video",
      "pict_type": "I",
      "pix_fmt": "bgra",
      "pkt_dts": 0,
      "pkt_dts_time": "0.000000",
      "pkt_duration": 10,
      "pkt_duration_time": "0.100000",
      "pkt_pos": "0",
      "pkt_size": "2782",
      "pts": 0,
      "pts_time": "0.000000",
      "repeat_pict": 0,
      "stream_index": 0,
      "top_field_first": 0,
      "type": "frame",
      "width": 480
    },
    {
      "codec_type": "video",
      "dts": 10,
      "dts_time": "0.100000",
      "duration": 10,
      "duration_time": "0.100000",
      "flags": "___",
      "pos": "2782",
      "pts": 10,
      "pts_time": "0.100000",
      "size": "2563",
      "stream_index": 0,
      "type": "packet"
    },
    {
      "best_effort_timestamp": 10,
      "best_effort_timestamp_time": "0.100000",
      "coded_picture_number": 0,
      "display_picture_number": 0,
      "duration": 10,
      "duration_time": "0.100000",
      "height": 360,
      "interlaced_frame": 0,
      "key_frame": 0,
      "media_type": "video",
      "pict_type": "P",
      "pix_fmt": "bgra",
      "pkt_dts": 10,
      "pkt_dts_time": "0.100000",
      "pkt_duration": 10,
      "pkt_duration_time": "0.100000",
      "pkt_pos": "2782",
      "pkt_size": "2563",
      "pts": 10,
      "pts_time": "0.100000",
      "repeat_pict": 0,
      "stream_index": 0,
      "top_field_first": 0,
      "type": "frame",
      "width": 480
    },
    {
      "codec_type": "video",
      "dts": 20,
      "dts_time": "0.200000",
      "duration": 10,
      "duration_time": "0.100000",
      "flags": "___",
      "pos": "5345",
      "pts": 20,
      "pts_time": "0.200000",
      "size": "2600",
      "stream_index": 0,
      "type": "packet"
    },
    {
      "best_effort_timestamp": 20,
      "best_effort_timestamp_time": "0.200000",
      "coded_picture_number": 0,
      "display_picture_number": 0,
      "duration": 10,
      "duration_time": "0.100000",
      "height": 360,
      "interlaced_frame": 0,
      "key_frame": 0,
      "media_type": "video",
      "pict_type": "P",
      "pix_fmt": "bgra",
      "pkt_dts": 20,
      "pkt_dts_time": "0.200000",
      "pkt_duration": 10,
      "pkt_duration_time": "0.100000",
      "pkt_pos": "5345",
      "pkt_size": "2600",
      "pts": 20,
      "pts_time": "0.200000",
      "repeat_pict": 0,
      "stream_index": 0,
      "top_field_first": 0,
      "type": "frame",
      "width": 480
    },
    {
      "codec_type": "video",
      "dts": 30,
      "dts_time": "0.300000",
      "duration": 10,
      "duration_time": "0.100000",
      "flags": "___",
      "pos": "7945",
      "pts": 30,
      "pts_time": "0.300000",
      "size": "2554",
      "stream_index": 0,
      "type": "packet"
    },
    {
      "best_effort_timestamp": 30,
      "best_effort_timestamp_time": "0.300000",
      "coded_picture_number": 0,
      "display_picture_number": 0,
      "duration": 10,
      "duration_time": "0.100000",
      "height": 360,
      "interlaced_frame": 0,
      "key_frame": 0,
      "media_type": "video",
      "pict_type": "P",
      "pix_fmt": "bgra",
      "pkt_dts": 30,
      "pkt_dts_time": "0.300000",
      "pkt_duration": 10,
      "pkt_duration_time": "0.100000",
      "pkt_pos": "7945",
      "pkt_size": "2554",
      "pts": 30,
      "pts_time": "0.300000",
      "repeat_pict": 0,
      "stream_index": 0,
      "top_field_first": 0,
      "type": "frame",
      "width": 480
    },
    {
      "codec_type": "video",
      "dts": 40,
      "dts_time": "0.400000",
      "duration": 10,
      "duration_time": "0.100000",
      "flags": "___",
      "pos": "10499",
      "pts": 40,
      "pts_time": "0.400000",
      "size": "2501",
      "stream_index": 0,
      "type": "packet"
    },
    {
      "best_effort_timestamp": 40,
      "best_effort_timestamp_time": "0.400000",
      "coded_picture_number": 0,
      "display_picture_number": 0,
      "duration": 10,
      "duration_time": "0.100000",
      "height": 360,
      "interlaced_frame": 0,
      "key_frame": 0,
      "media_type": "video",
      "pict_type": "P",
      "pix_fmt": "bgra",
      "pkt_dts": 40,
      "pkt_dts_time": "0.400000",
      "pkt_duration": 10,
      "pkt_duration_time": "0.100000",
      "pkt_pos": "10499",
      "pkt_size": "2501",
      "pts": 40,
      "pts_time": "0.400000",
      "repeat_pict": 0,
      "stream_index": 0,
      "top_field_first": 0,
      "type": "frame",
      "width": 480
    },
    {
      "codec_type": "video",
      "dts": 50,
      "dts_time": "0.500000",
      "duration": 10,
      "duration_time": "0.100000",
      "flags": "___",
      "pos": "13000",
      "pts": 50,
      "pts_time": "0.500000",
      "size": "2503",
      "stream_index": 0,
      "type": "packet"
    },
    {
      "best_effort_timestamp": 50,
      "best_effort_timestamp_time": "0.500000",
      "coded_picture_number": 0,
      "display_picture_number": 0,
      "duration": 10,
      "duration_time": "0.100000",
      "height": 360,
      "interlaced_frame": 0,
      "key_frame": 0,
      "media_type": "video",
      "pict_type": "P",
      "pix_fmt": "bgra",
      "pkt_dts": 50,
      "pkt_dts_time": "0.500000",
      "pkt_duration": 10,
      "pkt_duration_time": "0.100000",
      "pkt_pos": "13000",
      "pkt_size": "2503",
      "pts": 50,
      "pts_time": "0.500000",
      "repeat_pict": 0,
      "stream_index": 0,
      "top_field_first": 0,
      "type": "frame",
      "width": 480
    },
    {
      "codec_type": "video",
      "dts": 60,
      "dts_time": "0.600000",
      "duration": 10,
      "duration_time": "0.100000",
      "flags": "___",
      "pos": "15503",
      "pts": 60,
      "pts_time": "0.600000",
      "size": "2501",
      "stream_index": 0,
      "type": "packet"
    },
    {
      "best_effort_timestamp": 60,
      "best_effort_timestamp_time": "0.600000",
      "coded_picture_number": 0,
      "display_picture_number": 0,
      "duration": 10,
      "duration_time": "0.100000",
      "height": 360,
      "interlaced_frame": 0,
      "key_frame": 0,
      "media_type": "video",
      "pict_type": "P",
      "pix_fmt": "bgra",
      "pkt_dts": 60,
      "pkt_dts_time": "0.600000",
      "pkt_duration": 10,
      "pkt_duration_time": "0.100000",
      "pkt_pos": "15503",
      "pkt_size": "2501",
      "pts": 60,
      "pts_time": "0.600000",
      "repeat_pict": 0,
      "stream_index": 0,
      "top_field_first": 0,
      "type": "frame",
      "width": 480
    },
    {
      "codec_type": "video",
      "dts": 70,
      "dts_time": "0.700000",
      "duration": 10,
      "duration_time": "0.100000",
      "flags": "___",
      "pos": "18004",
      "pts": 70,
      "pts_time": "0.700000",
      "size": "2382",
      "stream_index": 0,
      "type": "packet"
    },
    {
      "best_effort_timestamp": 70,
      "best_effort_timestamp_time": "0.700000",
      "coded_picture_number": 0,
      "display_picture_number": 0,
      "duration": 10,
      "duration_time": "0.100000",
      "height": 360,
      "interlaced_frame": 0,
      "key_frame": 0,
      "media_type": "video",
      "pict_type": "P",
      "pix_fmt": "bgra",
      "pkt_dts": 70,
      "pkt_dts_time": "0.700000",
      "pkt_duration": 10,
      "pkt_duration_time": "0.100000",
      "pkt_pos": "18004",
      "pkt_size": "2382",
      "pts": 70,
      "pts_time": "0.700000",
      "repeat_pict": 0,
      "stream_index": 0,
      "top_field_first": 0,
      "type": "frame",
      "width": 480
    },
    {
      "codec_type": "video",
      "dts": 80,
      "dts_time": "0.800000",
      "duration": 10,
      "duration_time": "0.100000",
      "flags": "___",
      "pos": "20386",
      "pts": 80,
      "pts_time": "0.800000",
      "size": "2241",
      "stream_index": 0,
      "type": "packet"
    },
    {
      "best_effort_timestamp": 80,
      "best_effort_timestamp_time": "0.800000",
      "coded_picture_number": 0,
      "display_picture_number": 0,
      "duration": 10,
      "duration_time": "0.100000",
      "height": 360,
      "interlaced_frame": 0,
      "key_frame": 0,
      "media_type": "video",
      "pict_type": "P",
      "pix_fmt": "bgra",
      "pkt_dts": 80,
      "pkt_dts_time": "0.800000",
      "pkt_duration": 10,
      "pkt_duration_time": "0.100000",
      "pkt_pos": "20386",
      "pkt_size": "2241",
      "pts": 80,
      "pts_time": "0.800000",
      "repeat_pict": 0,
      "stream_index": 0,
      "top_field_first": 0,
      "type": "frame",
      "width": 480
    },
    {
      "codec_type": "video",
      "dts": 90,
      "dts_time": "0.900000",
      "duration": 10,
      "duration_time": "0.100000",
      "flags": "___",
      "pos": "22627",
      "pts": 90,
      "pts_time": "0.900000",
      "size": "2452",
      "stream_index": 0,
      "type": "packet"
    },
    {
      "best_effort_timestamp": 90,
      "best_effort_timestamp_time": "0.900000",
      "coded_picture_number": 0,
      "display_picture_number": 0,
      "duration": 10,
      "duration_time": "0.100000",
      "height": 360,
      "interlaced_frame": 0,
      "key_frame": 0,
      "media_type": "video",
      "pict_type": "P",
      "pix_fmt": "bgra",
      "pkt_dts": 90,
      "pkt_dts_time": "0.900000",
      "pkt_duration": 10,
      "pkt_duration_time": "0.100000",
      "pkt_pos": "22627",
      "pkt_size": "2452",
      "pts": 90,
      "pts_time": "0.900000",
      "repeat_pict": 0,
      "stream_index": 0,
      "top_field_first": 0,
      "type": "frame",
      "width": 480
    },
    {
      "codec_type": "video",
      "dts": 100,
      "dts_time": "1.000000",
      "duration": 10,
      "duration_time": "0.100000",
      "flags": "___",
      "pos": "25079",
      "pts": 100,
      "pts_time": "1.000000",
      "size": "2469",
      "stream_index": 0,
      "type": "packet"
    },
    {
      "best_effort_timestamp": 100,
      "best_effort_timestamp_time": "1.000000",
      "coded_picture_number": 0,
      "display_picture_number": 0,
      "duration": 10,
      "duration_time": "0.100000",
      "height": 360,
      "interlaced_frame": 0,
      "key_frame": 0,
      "media_type": "video",
      "pict_type": "P",
      "pix_fmt": "bgra",
      "pkt_dts": 100,
      "pkt_dts_time": "1.000000",
      "pkt_duration": 10,
      "pkt_duration_time": "0.100000",
      "pkt_pos": "25079",
      "pkt_size": "2469",
      "pts": 100,
      "pts_time": "1.000000",
      "repeat_pict": 0,
      "stream_index": 0,
      "top_field_first": 0,
      "type": "frame",
      "width": 480
    },
    {
      "codec_type": "video",
      "dts": 110,
      "dts_time": "1.100000",
      "duration": 10,
      "duration_time": "0.100000",
      "flags": "___",
      "pos": "27548",
      "pts": 110,
      "pts_time": "1.100000",
      "size": "2523",
      "stream_index": 0,
      "type": "packet"
    },
    {
      "best_effort_timestamp": 110,
      "best_effort_timestamp_time": "1.100000",
      "coded_picture_number": 0,
      "display_picture_number": 0,
      "duration": 10,
      "duration_time": "0.100000",
      "height": 360,
      "interlaced_frame": 0,
      "key_frame": 0,
      "media_type": "video",
      "pict_type": "P",
      "pix_fmt": "bgra",
      "pkt_dts": 110,
      "pkt_dts_time": "1.100000",
      "pkt_duration": 10,
      "pkt_duration_time": "0.100000",
      "pkt_pos": "27548",
      "pkt_size": "2523",
      "pts": 110,
      "pts_time": "1.100000",
      "repeat_pict": 0,
      "stream_index": 0,
      "top_field_first": 0,
      "type": "frame",
      "width": 480
    }
  ],
  "programs": [],
  "streams": [
    {
      "avg_frame_rate": "10/1",
      "closed_captions": 0,
      "codec_long_name": "CompuServe GIF (Graphics Interchange Format)",
      "codec_name": "gif",
      "codec_tag": "0x0000",
      "codec_tag_string": "[0][0][0][0]",
      "codec_type": "video",
      "coded_height": 360,
      "coded_width": 480,
      "disposition": {
        "attached_pic": 0,
        "captions": 0,
        "clean_effects": 0,
        "comment": 0,
        "default": 0,
        "dependent": 0,
        "descriptions": 0,
        "dub": 0,
        "forced": 0,
        "hearing_impaired": 0,
        "karaoke": 0,
        "lyrics": 0,
        "metadata": 0,
        "original": 0,
        "still_image": 0,
        "timed_thumbnails": 0,
        "visual_impaired": 0
      },
      "duration": "1.200000",
      "duration_ts": 120,
      "film_grain": 0,
      "has_b_frames": 0,
      "height": 360,
      "index": 0,
      "level": -99,
      "nb_frames": "12",
      "nb_read_frames": "12",
      "nb_read_packets": "12",
      "pix_fmt": "bgra",
      "r_frame_rate": "10/1",
      "refs": 1,
      "start_pts": 0,
      "start_time": "0.000000",
      "time_base": "1/100",
      "width": 480
    }
  ]
}
